<?xml version="1.0" standalone="no"?>
<!DOCTYPE svg PUBLIC "-//W3C//DTD SVG 20010904//EN"
 "http://www.w3.org/TR/2001/REC-SVG-20010904/DTD/svg10.dtd">
<svg version="1.0" xmlns="http://www.w3.org/2000/svg"
 width="512.000000pt" height="512.000000pt" viewBox="0 0 512.000000 512.000000"
 preserveAspectRatio="xMidYMid meet">

<g transform="translate(0.000000,512.000000) scale(0.100000,-0.100000)"
fill="#000000" stroke="none">
<path d="M2355 5110 c-321 -27 -628 -112 -920 -255 -766 -374 -1287 -1098
-1411 -1960 -24 -165 -24 -505 0 -670 40 -280 122 -547 241 -790 378 -769
1097 -1287 1960 -1411 165 -24 505 -24 670 0 279 40 546 121 790 241 767 376
1287 1098 1411 1960 24 165 24 505 0 670 -67 465 -254 906 -536 1260 -399 501
-994 842 -1633 936 -152 22 -429 31 -572 19z m1295 -1191 l23 -217 36 -5 c20
-3 132 -16 249 -29 120 -12 206 -26 195 -30 -10 -3 -110 -16 -223 -28 -113
-11 -217 -23 -231 -26 l-26 -5 -22 -207 c-27 -248 -33 -294 -37 -289 -2 1 -15
114 -30 249 l-28 247 -25 5 c-14 3 -118 15 -231 26 -113 12 -213 25 -223 28
-11 4 75 18 195 30 117 13 229 26 249 29 l36 5 22 207 c12 113 25 226 29 251
l6 45 7 -35 c4 -19 17 -132 29 -251z m-1205 233 c-98 -54 -170 -108 -260 -193
-502 -481 -511 -1272 -20 -1764 375 -375 930 -469 1410 -240 220 105 426 299
542 508 l34 62 -5 -85 c-2 -47 -14 -133 -26 -190 -152 -750 -813 -1290 -1580
-1290 -432 0 -826 165 -1136 474 -261 262 -406 555 -459 930 -113 793 412
1566 1204 1771 86 22 224 43 291 44 l55 1 -50 -28z m-1175 -27 l34 -35 -37
-38 -37 -37 -37 37 -37 38 34 35 c19 19 37 35 40 35 3 0 21 -16 40 -35z m-390
-300 c0 -6 -16 -26 -35 -45 l-35 -34 -37 37 -37 37 39 40 39 40 33 -32 c18
-18 33 -37 33 -43z m3430 -690 c0 -6 -16 -26 -35 -45 l-35 -34 -37 37 -37 37
39 40 39 40 33 -32 c18 -18 33 -37 33 -43z m-1787 -587 l-37 -38 -38 37 -38
37 37 38 37 38 38 -37 38 -37 -37 -38z m2097 -322 c0 -6 -14 -25 -32 -43 l-32
-33 -38 37 -38 37 37 38 37 38 33 -32 c18 -18 33 -36 33 -42z m-3430 -978 c7
-70 17 -132 21 -139 6 -11 254 -46 333 -48 51 -2 -6 -12 -158 -30 -92 -10
-170 -22 -173 -25 -6 -6 -41 -281 -42 -330 -2 -51 -12 6 -30 158 -10 92 -21
170 -24 173 -3 3 -81 14 -173 24 -152 18 -209 28 -158 30 49 1 324 36 330 42
3 3 15 79 25 169 10 90 19 168 20 173 3 22 17 -76 29 -197z m2363 -430 l-37
-38 -38 37 -38 37 37 38 37 38 38 -37 38 -37 -37 -38z"/>
</g>
</svg>
