<?xml version="1.0" standalone="no"?>
<!DOCTYPE svg PUBLIC "-//W3C//DTD SVG 20010904//EN"
 "http://www.w3.org/TR/2001/REC-SVG-20010904/DTD/svg10.dtd">
<svg version="1.0" xmlns="http://www.w3.org/2000/svg"
 width="512.000000pt" height="512.000000pt" viewBox="0 0 512.000000 512.000000"
 preserveAspectRatio="xMidYMid meet">

<g transform="translate(0.000000,512.000000) scale(0.100000,-0.100000)"
fill="#000000" stroke="none">
<path d="M1688 2746 c-26 -19 -38 -60 -38 -125 0 -74 15 -115 46 -130 35 -16
47 -14 78 10 25 20 26 24 26 119 0 95 -1 99 -26 119 -30 24 -61 26 -86 7z"/>
<path d="M3346 2739 c-25 -20 -26 -24 -26 -119 0 -95 1 -99 26 -119 31 -24 43
-26 78 -10 31 15 46 56 46 129 0 73 -15 114 -46 129 -35 16 -47 14 -78 -10z"/>
<path d="M2124 2629 c-52 -12 -121 -71 -145 -123 -23 -50 -24 -134 -3 -184 22
-53 57 -87 158 -153 l89 -57 28 43 c104 163 415 193 572 55 24 -22 50 -53 57
-69 l12 -30 86 54 c47 29 99 66 115 81 85 81 90 232 9 317 -45 48 -100 70
-168 71 -65 0 -89 -11 -253 -115 -48 -30 -62 -34 -121 -34 -62 0 -72 3 -146
49 -163 102 -204 115 -290 95z"/>
</g>
</svg>
